<svg width="548" height="610" viewBox="0 0 548 610" fill="none" xmlns="http://www.w3.org/2000/svg">
<path fill-rule="evenodd" clip-rule="evenodd" d="M265.525 563.994V477.056C264.752 477.239 263.719 477.934 262.516 479.705C261.118 481.762 259.779 484.869 258.624 488.889C256.32 496.901 254.868 508.087 254.868 520.525C254.868 532.963 256.32 544.149 258.624 552.161C259.779 556.181 261.118 559.288 262.516 561.345C263.719 563.116 264.752 563.812 265.525 563.994ZM269.396 561.345C268.712 562.352 268.082 563.011 267.525 563.426V477.624C268.082 478.039 268.712 478.698 269.396 479.705C270.794 481.762 272.132 484.869 273.288 488.889C275.591 496.901 277.043 508.087 277.043 520.525C277.043 532.963 275.591 544.149 273.288 552.161C272.132 556.181 270.794 559.288 269.396 561.345ZM252.868 520.525C252.868 540.269 256.482 557.077 261.535 563.384C255.826 561.852 250.591 557.722 246.455 551.595C241.146 543.729 237.798 532.751 237.798 520.525C237.798 508.299 241.146 497.321 246.455 489.455C250.591 483.328 255.826 479.198 261.535 477.666C256.482 483.973 252.868 500.781 252.868 520.525ZM265.956 475.003C265.998 475.003 266.04 475.004 266.083 475.006C266.23 475.004 266.377 475.003 266.525 475.003C291.666 475.003 312.046 495.384 312.046 520.525C312.046 545.666 291.666 566.047 266.525 566.047C266.377 566.047 266.23 566.046 266.083 566.045C266.04 566.046 265.998 566.047 265.956 566.047C265.879 566.047 265.803 566.044 265.726 566.04C240.954 565.614 221.003 545.399 221.003 520.525C221.003 495.651 240.954 475.436 265.726 475.01C265.803 475.006 265.879 475.003 265.956 475.003ZM286.594 551.595C282.121 558.222 276.362 562.512 270.109 563.706C275.301 557.667 279.043 540.616 279.043 520.525C279.043 500.434 275.301 483.383 270.109 477.344C276.362 478.538 282.121 482.828 286.594 489.455C291.903 497.321 295.252 508.299 295.252 520.525C295.252 532.751 291.903 543.729 286.594 551.595ZM254.314 562.31C236.221 557.032 223.003 540.322 223.003 520.525C223.003 500.728 236.221 484.018 254.314 478.74C243.419 485.737 235.798 501.813 235.798 520.525C235.798 539.237 243.419 555.313 254.314 562.31ZM278.736 562.31C296.828 557.032 310.046 540.322 310.046 520.525C310.046 500.728 296.828 484.018 278.736 478.74C289.631 485.737 297.252 501.813 297.252 520.525C297.252 539.237 289.631 555.313 278.736 562.31Z" fill="#9F7033" fill-opacity="0.5"/>
<path fill-rule="evenodd" clip-rule="evenodd" d="M217.14 571.302C228.551 582.323 243.716 589.596 260.767 590.937C299.768 594.005 333.87 564.875 336.937 525.874C338.258 509.078 333.607 493.191 324.768 480.299C323.602 480.988 322.219 481.338 320.765 481.223C317.006 480.928 314.198 477.64 314.493 473.881C314.612 472.373 315.212 471.018 316.131 469.955C304.65 458.59 289.241 451.07 271.874 449.704C232.874 446.637 198.771 475.767 195.704 514.767C194.363 531.819 199.177 547.934 208.279 560.928C209.576 559.917 211.241 559.368 213.011 559.507C216.77 559.803 219.578 563.09 219.283 566.85C219.143 568.619 218.341 570.178 217.14 571.302ZM215.459 572.458C227.226 583.949 242.932 591.541 260.61 592.931C300.712 596.085 335.777 566.133 338.931 526.031C340.294 508.704 335.475 492.316 326.328 479.037C327.327 477.952 327.983 476.536 328.108 474.952C328.404 471.192 325.596 467.905 321.836 467.609C320.306 467.489 318.854 467.882 317.65 468.645C305.833 456.896 289.945 449.119 272.031 447.711C231.929 444.557 196.864 474.509 193.71 514.611C192.32 532.289 197.364 548.989 206.874 562.407C206.2 563.371 205.767 564.522 205.668 565.779C205.372 569.539 208.18 572.826 211.94 573.122C213.197 573.221 214.402 572.972 215.459 572.458ZM316.487 474.038C316.278 476.696 318.264 479.02 320.922 479.23C323.58 479.439 325.905 477.453 326.114 474.795C326.323 472.136 324.338 469.812 321.679 469.603C319.021 469.394 316.696 471.379 316.487 474.038ZM212.097 571.128C209.438 570.919 207.453 568.594 207.662 565.936C207.871 563.278 210.196 561.292 212.854 561.501C215.512 561.71 217.498 564.035 217.289 566.693C217.08 569.351 214.755 571.337 212.097 571.128Z" fill="#DCDCDC" fill-opacity="0.1"/>
<path fill-rule="evenodd" clip-rule="evenodd" d="M519.865 348.41C528.696 337.697 534 323.968 534 309C534 274.758 506.242 247 472 247C457.246 247 443.695 252.154 433.05 260.759C433.651 261.694 434 262.806 434 264C434 267.314 431.314 270 428 270C426.758 270 425.604 269.623 424.647 268.977C415.509 279.777 410 293.745 410 309C410 343.242 437.758 371 472 371C486.968 371 500.697 365.696 511.41 356.865C510.53 355.821 510 354.472 510 353C510 349.686 512.686 347 516 347C517.472 347 518.821 347.53 519.865 348.41ZM521.176 349.963C530.431 338.864 536 324.582 536 309C536 273.654 507.346 245 472 245C456.727 245 442.704 250.35 431.702 259.278C430.682 258.477 429.397 258 428 258C424.686 258 422 260.686 422 264C422 265.349 422.445 266.593 423.196 267.595C413.718 278.756 408 293.21 408 309C408 344.346 436.654 373 472 373C487.582 373 501.864 367.431 512.963 358.176C513.854 358.7 514.892 359 516 359C519.314 359 522 356.314 522 353C522 351.892 521.7 350.854 521.176 349.963ZM428 268C430.209 268 432 266.209 432 264C432 261.791 430.209 260 428 260C425.791 260 424 261.791 424 264C424 266.209 425.791 268 428 268ZM520 353C520 355.209 518.209 357 516 357C513.791 357 512 355.209 512 353C512 350.791 513.791 349 516 349C518.209 349 520 350.791 520 353Z" fill="#DCDCDC" fill-opacity="0.1"/>
<path d="M488.452 268H456.548C453.484 268 451 270.457 451 273.488V345.512C451 348.543 453.484 351 456.548 351H488.452C491.516 351 494 348.543 494 345.512V273.488C494 270.457 491.516 268 488.452 268Z" fill="#40414B"/>
<path d="M488.452 268.686H456.548C453.867 268.686 451.694 270.836 451.694 273.488V345.512C451.694 348.164 453.867 350.314 456.548 350.314H488.452C491.133 350.314 493.307 348.164 493.307 345.512V273.488C493.307 270.836 491.133 268.686 488.452 268.686Z" stroke="#9F7033" stroke-opacity="0.5" stroke-width="2"/>
<path d="M481.516 272.802H462.097C461.714 272.802 461.403 273.109 461.403 273.488C461.403 273.867 461.714 274.174 462.097 274.174H481.516C481.899 274.174 482.21 273.867 482.21 273.488C482.21 273.109 481.899 272.802 481.516 272.802Z" fill="#9F7033" fill-opacity="0.5"/>
<path d="M481.516 276.917H462.097C461.714 276.917 461.403 277.225 461.403 277.603C461.403 277.982 461.714 278.289 462.097 278.289H481.516C481.899 278.289 482.21 277.982 482.21 277.603C482.21 277.225 481.899 276.917 481.516 276.917Z" fill="#9F7033" fill-opacity="0.5"/>
<path d="M493.307 337.967H451.694V339.339H493.307V337.967Z" fill="#9F7033" fill-opacity="0.5"/>
<path d="M472.5 346.884C473.649 346.884 474.581 345.963 474.581 344.826C474.581 343.69 473.649 342.769 472.5 342.769C471.351 342.769 470.419 343.69 470.419 344.826C470.419 345.963 471.351 346.884 472.5 346.884Z" fill="#9F7033" fill-opacity="0.5"/>
<path fill-rule="evenodd" clip-rule="evenodd" d="M289.354 126.964C290.059 120.975 290.44 114.608 290.44 108C290.44 106.708 290.425 105.425 290.397 104.152L292.387 103.727C292.422 105.14 292.44 106.565 292.44 108C292.44 114.062 292.123 119.932 291.53 125.508C298.97 120.439 305.361 115.155 310.402 110.006C303.286 102.976 294.486 95.8958 284.437 89.3932C281.472 87.4745 278.506 85.6757 275.557 84.0003C268.888 86.2861 261.884 89.2225 254.79 92.7849L253.469 91.2109C260.184 87.8173 266.836 84.9712 273.223 82.6974C264.278 77.7953 255.547 74.0458 247.575 71.5494C244.859 81.8952 243.255 94.4396 243.255 108C243.255 122.621 245.119 136.06 248.232 146.836C256.442 144.196 265.224 140.536 274.101 135.906C279.527 133.076 284.635 130.068 289.354 126.964ZM289.025 129.564C284.648 132.379 279.964 135.104 275.026 137.679C266.052 142.36 257.153 146.071 248.808 148.752C249.375 150.569 249.978 152.303 250.615 153.946C252.879 159.782 255.524 164.369 258.36 167.462C261.194 170.554 264.065 172 266.847 172C269.63 172 272.501 170.554 275.335 167.462C278.171 164.369 280.816 159.782 283.079 153.946C285.703 147.181 287.76 138.872 289.025 129.564ZM246.899 149.351C225.028 156.036 207.305 155.471 202.658 146.56C199.377 140.269 203.236 131.014 212.124 121.151C212.04 121.023 211.963 120.89 211.891 120.753C210.405 117.904 212.054 114.108 215.573 112.272C219.092 110.437 223.149 111.258 224.635 114.106C226.12 116.954 224.472 120.751 220.953 122.586C218.359 123.939 215.473 123.849 213.539 122.567L213.507 122.603C209.194 127.409 206.205 131.958 204.676 135.96C203.146 139.966 203.157 143.192 204.431 145.635C205.706 148.079 208.345 149.934 212.506 150.971C216.663 152.008 222.104 152.16 228.513 151.373C233.917 150.71 239.931 149.39 246.324 147.435C243.14 136.433 241.255 122.784 241.255 108C241.255 94.2749 242.879 81.5284 245.66 70.9694C243.265 70.2695 240.946 69.687 238.716 69.2249C232.13 67.8596 226.438 67.5665 221.976 68.3219C217.515 69.077 214.495 70.8338 212.844 73.3859C211.192 75.938 210.827 79.4125 211.966 83.7909C213.105 88.1711 215.705 93.2434 219.649 98.6917C223.775 104.392 229.302 110.408 235.967 116.356L235.206 118.355C215.16 100.644 204.829 82.0908 211.165 72.2994C215.979 64.8593 229.351 64.1248 246.187 69.04C250.844 52.6458 258.363 42 266.847 42C273.943 42 280.364 49.4462 284.999 61.4738C285.151 61.4596 285.305 61.4523 285.46 61.4523C288.673 61.4523 291.277 64.5628 291.277 68.3997C291.277 72.2366 288.673 75.3471 285.46 75.3471C282.248 75.3471 279.644 72.2366 279.644 68.3997C279.644 65.5752 281.055 63.1444 283.081 62.0582L283.079 62.054C280.816 56.2177 278.171 51.6312 275.335 48.5382C272.501 45.4465 269.63 44 266.847 44C264.065 44 261.194 45.4465 258.36 48.5382C255.524 51.6312 252.879 56.2177 250.615 62.054C249.706 64.3979 248.866 66.927 248.102 69.6187C256.709 72.3075 266.146 76.4191 275.762 81.8188C299.323 73.9027 318.815 74.0047 323.724 83.4153C327.132 89.9509 322.834 99.6853 313.199 109.978C328.423 125.479 335.579 140.688 330.052 149.229C325.916 155.62 315.468 157.063 301.933 154.228C301.857 154.373 301.774 154.516 301.684 154.655C299.812 157.548 295.493 158.081 292.037 155.845C288.581 153.609 287.298 149.451 289.17 146.557C291.042 143.664 295.361 143.131 298.817 145.368C301.411 147.046 302.782 149.809 302.511 152.306C309.092 153.669 314.781 153.962 319.241 153.207C323.701 152.452 326.721 150.695 328.372 148.143C330.024 145.591 330.389 142.116 329.25 137.738C328.111 133.357 325.511 128.285 321.568 122.837C318.885 119.13 315.61 115.291 311.814 111.423C306.35 117.001 299.364 122.705 291.229 128.122C287.929 154.732 278.261 174 266.847 174C258.783 174 251.59 164.382 246.899 149.351ZM311.785 108.561C312.157 108.164 312.52 107.767 312.874 107.372C317.187 102.567 320.176 98.0179 321.705 94.0154C323.235 90.0099 323.225 86.7838 321.95 84.3402C320.676 81.8967 318.036 80.042 313.876 79.0044C309.719 77.9676 304.278 77.8159 297.869 78.6024C291.916 79.333 285.222 80.8609 278.1 83.155C280.57 84.5916 283.048 86.1121 285.524 87.7141C295.655 94.2701 304.559 101.426 311.785 108.561ZM289.277 68.3997C289.277 71.4796 287.25 73.3471 285.46 73.3471C283.671 73.3471 281.644 71.4796 281.644 68.3997C281.644 65.3198 283.671 63.4523 285.46 63.4523C287.25 63.4523 289.277 65.3198 289.277 68.3997ZM293.124 154.166C290.303 152.341 289.75 149.343 290.849 147.644C291.948 145.945 294.91 145.222 297.73 147.047C300.55 148.872 301.104 151.87 300.005 153.569C298.906 155.267 295.944 155.991 293.124 154.166ZM222.861 115.031C222.06 113.494 219.406 112.528 216.498 114.045C213.589 115.562 212.863 118.291 213.664 119.828C214.466 121.365 217.119 122.33 220.028 120.813C222.936 119.296 223.663 116.568 222.861 115.031Z" fill="#9F7033" fill-opacity="0.5"/>
<path fill-rule="evenodd" clip-rule="evenodd" d="M338.527 167.803C351.941 151.553 360 130.717 360 108C360 56.0852 317.915 14 266 14C243.649 14 223.121 21.8006 206.988 34.8278C208.246 36.3757 209 38.3498 209 40.5C209 45.4706 204.971 49.5 200 49.5C197.778 49.5 195.743 48.6944 194.173 47.3594C180.339 63.7283 172 84.8903 172 108C172 159.915 214.085 202 266 202C288.717 202 309.553 193.941 325.803 180.527C324.076 178.887 323 176.569 323 174C323 169.029 327.029 165 332 165C334.569 165 336.887 166.076 338.527 167.803ZM339.764 169.444C353.647 152.795 362 131.373 362 108C362 54.9807 319.019 12 266 12C243.091 12 222.056 20.0247 205.553 33.4165C204.023 32.2159 202.095 31.5 200 31.5C195.029 31.5 191 35.5294 191 40.5C191 42.523 191.667 44.39 192.794 45.893C178.577 62.6344 170 84.3156 170 108C170 161.019 212.981 204 266 204C289.373 204 310.795 195.647 327.444 181.764C328.781 182.549 330.338 183 332 183C336.971 183 341 178.971 341 174C341 172.338 340.549 170.781 339.764 169.444ZM200 47.5C203.866 47.5 207 44.366 207 40.5C207 36.634 203.866 33.5 200 33.5C196.134 33.5 193 36.634 193 40.5C193 44.366 196.134 47.5 200 47.5ZM339 174C339 177.866 335.866 181 332 181C328.134 181 325 177.866 325 174C325 170.134 328.134 167 332 167C335.866 167 339 170.134 339 174Z" fill="#DCDCDC" fill-opacity="0.1"/>
<path fill-rule="evenodd" clip-rule="evenodd" d="M95.4986 338.257C102.059 330.306 106 320.113 106 309C106 283.595 85.4051 263 60 263C49.0235 263 38.945 266.845 31.0375 273.261C31.3336 273.86 31.5 274.536 31.5 275.25C31.5 277.735 29.4853 279.75 27 279.75C26.25 279.75 25.5428 279.566 24.9209 279.242C18.1092 287.264 14 297.652 14 309C14 334.405 34.5949 355 60 355C71.1131 355 81.3059 351.059 89.2569 344.499C88.7788 343.784 88.5 342.924 88.5 342C88.5 339.515 90.5147 337.5 93 337.5C93.9245 337.5 94.7839 337.779 95.4986 338.257ZM96.8817 339.722C103.824 331.398 108 320.687 108 309C108 282.49 86.5097 261 60 261C48.5454 261 38.0279 265.012 29.7763 271.708C29.0115 271.108 28.0476 270.75 27 270.75C24.5147 270.75 22.5 272.765 22.5 275.25C22.5 276.261 22.8337 277.195 23.3971 277.947C16.2884 286.317 12 297.158 12 309C12 335.51 33.4903 357 60 357C71.6866 357 82.3977 352.824 90.7222 345.882C91.3903 346.275 92.1688 346.5 93 346.5C95.4853 346.5 97.5 344.485 97.5 342C97.5 341.169 97.2747 340.39 96.8817 339.722ZM27 277.75C28.3807 277.75 29.5 276.631 29.5 275.25C29.5 273.869 28.3807 272.75 27 272.75C25.6193 272.75 24.5 273.869 24.5 275.25C24.5 276.631 25.6193 277.75 27 277.75ZM95.5 342C95.5 343.381 94.3807 344.5 93 344.5C91.6193 344.5 90.5 343.381 90.5 342C90.5 340.619 91.6193 339.5 93 339.5C94.3807 339.5 95.5 340.619 95.5 342Z" fill="#DCDCDC" fill-opacity="0.1"/>
<path fill-rule="evenodd" clip-rule="evenodd" d="M75.6367 325.036H75.6272H75.6177C75.6027 325.036 75.5877 325.036 75.5727 325.036C75.5518 325.036 75.5308 325.036 75.5098 325.036C75.4738 325.036 75.4378 325.036 75.402 325.036H75.3925H75.383H44.1348L43.9675 325.035C37.9268 324.991 32.75 319.568 32.75 312.511C32.75 305.424 37.9691 299.988 44.0431 299.988C44.8654 299.988 45.6652 300.085 46.4346 300.269L47.9058 300.621L48.645 299.301C51.0489 295.01 55.3105 292.25 60.0759 292.25C64.0989 292.25 67.7512 294.211 70.2442 297.401L71.0771 298.467L72.3763 298.091C73.3757 297.802 74.4253 297.647 75.5098 297.647C82.1758 297.647 87.8747 303.608 87.8747 311.342C87.8747 318.985 82.3036 324.902 75.7395 325.034L75.6544 325.036H75.6367ZM43.953 327.036H45.953H73.7797H75.383C75.4252 327.036 75.4675 327.036 75.5098 327.036C75.5522 327.036 75.5944 327.036 75.6367 327.036H75.7797V327.034C83.5887 326.876 89.8747 319.911 89.8747 311.342C89.8747 302.674 83.4433 295.647 75.5098 295.647C74.2342 295.647 72.9975 295.829 71.8201 296.17C68.9888 292.547 64.7778 290.25 60.0759 290.25C54.4988 290.25 49.6126 293.481 46.9001 298.324C45.9798 298.104 45.0239 297.988 44.0431 297.988C36.7015 297.988 30.75 304.49 30.75 312.511C30.75 320.5 36.6529 326.982 43.953 327.035V327.036ZM37 312.75C37 307.841 40.6556 304 45 304V302C39.4033 302 35 306.89 35 312.75H37Z" fill="#9F7033" fill-opacity="0.5"/>
<path fill-rule="evenodd" clip-rule="evenodd" d="M375.877 111.656C376.155 110.667 376.42 109.672 376.672 108.672C417.126 130.591 450.389 164.153 472 204.882C471 205.129 470.006 205.389 469.017 205.662C447.788 165.949 415.318 133.187 375.877 111.656ZM156.578 108C156.824 109.001 157.083 109.998 157.355 110.988C117.358 132.506 84.433 165.536 62.9835 205.662C61.9944 205.389 60.9998 205.129 60 204.882C81.8334 163.734 115.56 129.902 156.578 108ZM378.668 516.089C378.838 517.144 378.993 518.203 379.134 519.268C418.062 497.563 450.149 465.004 471.329 425.667C470.331 425.414 469.338 425.147 468.351 424.868C447.62 463.088 416.444 494.78 378.668 516.089ZM154.189 520C154.323 518.935 154.471 517.874 154.634 516.818C116.273 495.506 84.6175 463.526 63.6492 424.868C62.6618 425.147 61.6689 425.414 60.6707 425.667C82.0908 465.448 114.665 498.298 154.189 520Z" fill="#DCDCDC" fill-opacity="0.1"/>
</svg>
