<svg width="604" height="309" viewBox="0 0 604 309" fill="none" xmlns="http://www.w3.org/2000/svg">
<path fill-rule="evenodd" clip-rule="evenodd" d="M345 38H34C32.3431 38 31 39.3431 31 41V254C31 255.657 32.3432 257 34 257H345C346.657 257 348 255.657 348 254V41C348 39.3431 346.657 38 345 38ZM34 35C30.6863 35 28 37.6863 28 41V254C28 257.314 30.6863 260 34 260H164.939L162.622 298H146C143.791 298 142 299.791 142 302V305C142 307.209 143.791 309 146 309H232C234.209 309 236 307.209 236 305V302C236 299.791 234.209 298 232 298H215.854L213.073 260H345C348.314 260 351 257.314 351 254V41C351 37.6863 348.314 35 345 35H34ZM213.848 298L211.141 261H166.882L164.626 298H213.848ZM162.5 300H146C144.895 300 144 300.895 144 302V305C144 306.105 144.895 307 146 307H232C233.105 307 234 306.105 234 305V302C234 300.895 233.105 300 232 300H216H213.995H164.504H162.5ZM325 58H54C52.3431 58 51 59.3431 51 61V212C51 213.657 52.3431 215 54 215H325C326.657 215 328 213.657 328 212V61C328 59.3431 326.657 58 325 58ZM54 55C50.6863 55 48 57.6863 48 61V212C48 215.314 50.6863 218 54 218H325C328.314 218 331 215.314 331 212V61C331 57.6863 328.314 55 325 55H54ZM195 241C195 244.314 192.314 247 189 247C185.686 247 183 244.314 183 241C183 237.686 185.686 235 189 235C192.314 235 195 237.686 195 241ZM197 241C197 245.418 193.418 249 189 249C184.582 249 181 245.418 181 241C181 236.582 184.582 233 189 233C193.418 233 197 236.582 197 241Z" fill="#DCDCDC" fill-opacity="0.6"/>
<path d="M508 141H292C288.134 141 285 144.134 285 148V288C285 291.866 288.134 295 292 295H508C511.866 295 515 291.866 515 288V148C515 144.134 511.866 141 508 141Z" fill="#40414B"/>
<path d="M508 142H292C288.686 142 286 144.686 286 148V288C286 291.314 288.686 294 292 294H508C511.314 294 514 291.314 514 288V148C514 144.686 511.314 142 508 142Z" stroke="#DCDCDC" stroke-opacity="0.6" stroke-width="2"/>
<path d="M498 154H302C298.134 154 295 157.134 295 161V275C295 278.866 298.134 282 302 282H498C501.866 282 505 278.866 505 275V161C505 157.134 501.866 154 498 154Z" fill="#40414B"/>
<path d="M498 155H302C298.686 155 296 157.686 296 161V275C296 278.314 298.686 281 302 281H498C501.314 281 504 278.314 504 275V161C504 157.686 501.314 155 498 155Z" stroke="#DCDCDC" stroke-opacity="0.6" stroke-width="2"/>
<path d="M384 294H420V295C420 298.314 417.314 301 414 301H390C386.686 301 384 298.314 384 295V294Z" stroke="#DCDCDC" stroke-opacity="0.6" stroke-width="2"/>
<mask id="mask0_76:248" style="mask-type:alpha" maskUnits="userSpaceOnUse" x="270" y="294" width="262" height="15">
<path d="M270 295C270 294.448 270.448 294 271 294H531C531.552 294 532 294.448 532 295V303C532 306.314 529.314 309 526 309H276C272.686 309 270 306.314 270 303V295Z" fill="white"/>
</mask>
<g mask="url(#mask0_76:248)">
<path d="M270 295C270 294.448 270.448 294 271 294H531C531.552 294 532 294.448 532 295V303C532 306.314 529.314 309 526 309H276C272.686 309 270 306.314 270 303V295Z" stroke="#DCDCDC" stroke-opacity="0.6" stroke-width="4"/>
</g>
<path d="M54 188H8C3.58172 188 0 191.582 0 196V301C0 305.418 3.58172 309 8 309H54C58.4183 309 62 305.418 62 301V196C62 191.582 58.4183 188 54 188Z" fill="#40414B"/>
<path d="M54 189H8C4.13401 189 1 192.134 1 196V301C1 304.866 4.13401 308 8 308H54C57.866 308 61 304.866 61 301V196C61 192.134 57.866 189 54 189Z" stroke="#DCDCDC" stroke-opacity="0.6" stroke-width="2"/>
<path d="M44 195H16C15.4477 195 15 195.448 15 196C15 196.552 15.4477 197 16 197H44C44.5523 197 45 196.552 45 196C45 195.448 44.5523 195 44 195Z" fill="#DCDCDC" fill-opacity="0.6"/>
<path d="M44 201H16C15.4477 201 15 201.448 15 202C15 202.552 15.4477 203 16 203H44C44.5523 203 45 202.552 45 202C45 201.448 44.5523 201 44 201Z" fill="#DCDCDC" fill-opacity="0.6"/>
<path d="M61 290H1V292H61V290Z" fill="#DCDCDC" fill-opacity="0.6"/>
<path d="M49 238H29C28.4477 238 28 238.448 28 239C28 239.552 28.4477 240 29 240H49C49.5523 240 50 239.552 50 239C50 238.448 49.5523 238 49 238Z" fill="#9F7133"/>
<path d="M43 246H29C28.4477 246 28 246.448 28 247C28 247.552 28.4477 248 29 248H43C43.5523 248 44 247.552 44 247C44 246.448 43.5523 246 43 246Z" fill="#9F7133"/>
<path d="M37 253H29C28.4477 253 28 253.448 28 254C28 254.552 28.4477 255 29 255H37C37.5523 255 38 254.552 38 254C38 253.448 37.5523 253 37 253Z" fill="#9F7133"/>
<path d="M31 303C32.6569 303 34 301.657 34 300C34 298.343 32.6569 297 31 297C29.3431 297 28 298.343 28 300C28 301.657 29.3431 303 31 303Z" fill="#DCDCDC" fill-opacity="0.6"/>
<path d="M18 252C20.7614 252 23 249.761 23 247C23 244.239 20.7614 242 18 242C15.2386 242 13 244.239 13 247C13 249.761 15.2386 252 18 252Z" stroke="#9F7133" stroke-width="2"/>
<rect x="431" y="87" width="173" height="148" rx="10" fill="#40414B"/>
<rect x="432" y="88" width="171" height="146" rx="9" stroke="#DCDCDC" stroke-opacity="0.6" stroke-width="2"/>
<path d="M432.5 107H602.5" stroke="#DCDCDC" stroke-opacity="0.6" stroke-width="2"/>
<circle cx="446" cy="98" r="3" fill="#DCDCDC" fill-opacity="0.6"/>
<circle cx="456" cy="98" r="3" fill="#DCDCDC" fill-opacity="0.6"/>
<circle cx="466" cy="98" r="3" fill="#DCDCDC" fill-opacity="0.6"/>
<circle cx="538" cy="169" r="31" stroke="#9F7133" stroke-width="2"/>
<mask id="path-26-inside-1_76:248" fill="white">
<rect x="533" y="133" width="10" height="10" rx="1"/>
</mask>
<rect x="533" y="133" width="10" height="10" rx="1" fill="#40414B" stroke="#9F7133" stroke-width="4" mask="url(#path-26-inside-1_76:248)"/>
<mask id="path-27-inside-2_76:248" fill="white">
<rect x="502" y="164" width="10" height="10" rx="1"/>
</mask>
<rect x="502" y="164" width="10" height="10" rx="1" fill="#40414B" stroke="#9F7133" stroke-width="4" mask="url(#path-27-inside-2_76:248)"/>
<mask id="path-28-inside-3_76:248" fill="white">
<rect x="533" y="195" width="10" height="10" rx="1"/>
</mask>
<rect x="533" y="195" width="10" height="10" rx="1" fill="#40414B" stroke="#9F7133" stroke-width="4" mask="url(#path-28-inside-3_76:248)"/>
<mask id="path-29-inside-4_76:248" fill="white">
<rect x="563" y="164" width="10" height="10" rx="1"/>
</mask>
<rect x="563" y="164" width="10" height="10" rx="1" fill="#40414B" stroke="#9F7133" stroke-width="4" mask="url(#path-29-inside-4_76:248)"/>
<rect x="567" y="143" width="2" height="55" rx="1" fill="#9F7133"/>
<circle cx="568" cy="141" r="4" fill="#9F7133"/>
<circle cx="568" cy="199" r="4" fill="#9F7133"/>
<rect x="464" y="132" width="18" height="18" rx="4" fill="#40414B" stroke="#9F7133" stroke-width="2"/>
<rect x="464" y="160" width="18" height="18" rx="4" fill="#40414B" stroke="#9F7133" stroke-width="2"/>
<rect x="464" y="188" width="18" height="18" rx="4" fill="#40414B" stroke="#9F7133" stroke-width="2"/>
<path d="M227 0H105C98.3726 0 93 5.37258 93 12V152C93 158.627 98.3726 164 105 164H227C233.627 164 239 158.627 239 152V12C239 5.37258 233.627 0 227 0Z" fill="#40414B"/>
<path d="M227 1H105C98.9249 1 94 5.92487 94 12V152C94 158.075 98.9249 163 105 163H227C233.075 163 238 158.075 238 152V12C238 5.92487 233.075 1 227 1Z" stroke="#DCDCDC" stroke-opacity="0.6" stroke-width="2"/>
<path d="M115 46H112C111.448 46 111 46.4477 111 47C111 47.5523 111.448 48 112 48H115C115.552 48 116 47.5523 116 47C116 46.4477 115.552 46 115 46Z" fill="#9F7133"/>
<path d="M130 46H121C120.448 46 120 46.4477 120 47C120 47.5523 120.448 48 121 48H130C130.552 48 131 47.5523 131 47C131 46.4477 130.552 46 130 46Z" fill="#9F7133"/>
<path d="M144 46H135C134.448 46 134 46.4477 134 47C134 47.5523 134.448 48 135 48H144C144.552 48 145 47.5523 145 47C145 46.4477 144.552 46 144 46Z" fill="#9F7133"/>
<path d="M165 46H149C148.448 46 148 46.4477 148 47C148 47.5523 148.448 48 149 48H165C165.552 48 166 47.5523 166 47C166 46.4477 165.552 46 165 46Z" fill="#9F7133"/>
<path d="M193 46H170C169.448 46 169 46.4477 169 47C169 47.5523 169.448 48 170 48H193C193.552 48 194 47.5523 194 47C194 46.4477 193.552 46 193 46Z" fill="#9F7133"/>
<path fill-rule="evenodd" clip-rule="evenodd" d="M112 58C111.448 58 111 58.4477 111 59C111 59.5523 111.448 60 112 60H116C116.552 60 117 59.5523 117 59C117 58.4477 116.552 58 116 58H112ZM185 59C185 58.4477 185.448 58 186 58H199C199.552 58 200 58.4477 200 59C200 59.5523 199.552 60 199 60H186C185.448 60 185 59.5523 185 59ZM157 71C157 70.4477 157.448 70 158 70H166C166.552 70 167 70.4477 167 71C167 71.5523 166.552 72 166 72H158C157.448 72 157 71.5523 157 71ZM155 83C154.448 83 154 83.4477 154 84C154 84.5523 154.448 85 155 85H175C175.552 85 176 84.5523 176 84C176 83.4477 175.552 83 175 83H155ZM154 97C154 96.4477 154.448 96 155 96H193C193.552 96 194 96.4477 194 97C194 97.5523 193.552 98 193 98H155C154.448 98 154 97.5523 154 97ZM146 109C145.448 109 145 109.448 145 110C145 110.552 145.448 111 146 111H181C181.552 111 182 110.552 182 110C182 109.448 181.552 109 181 109H146ZM120 136C120 135.448 120.448 135 121 135H156C156.552 135 157 135.448 157 136C157 136.552 156.552 137 156 137H121C120.448 137 120 136.552 120 136ZM146 58C145.448 58 145 58.4477 145 59C145 59.5523 145.448 60 146 60H180C180.552 60 181 59.5523 181 59C181 58.4477 180.552 58 180 58H146ZM139 71C139 70.4477 139.448 70 140 70H153C153.552 70 154 70.4477 154 71C154 71.5523 153.552 72 153 72H140C139.448 72 139 71.5523 139 71ZM122 58C121.448 58 121 58.4477 121 59C121 59.5523 121.448 60 122 60H140C140.552 60 141 59.5523 141 59C141 58.4477 140.552 58 140 58H122ZM121 71C121 70.4477 121.448 70 122 70H134C134.552 70 135 70.4477 135 71C135 71.5523 134.552 72 134 72H122C121.448 72 121 71.5523 121 71ZM121 83C120.448 83 120 83.4477 120 84C120 84.5523 120.448 85 121 85H150C150.552 85 151 84.5523 151 84C151 83.4477 150.552 83 150 83H121ZM120 97C120 96.4477 120.448 96 121 96H150C150.552 96 151 96.4477 151 97C151 97.5523 150.552 98 150 98H121C120.448 98 120 97.5523 120 97ZM121 109C120.448 109 120 109.448 120 110C120 110.552 120.448 111 121 111H141C141.552 111 142 110.552 142 110C142 109.448 141.552 109 141 109H121ZM120 123C120 122.448 120.448 122 121 122H141C141.552 122 142 122.448 142 123C142 123.552 141.552 124 141 124H121C120.448 124 120 123.552 120 123ZM111 71C111 70.4477 111.448 70 112 70H116C116.552 70 117 70.4477 117 71C117 71.5523 116.552 72 116 72H112C111.448 72 111 71.5523 111 71ZM112 83C111.448 83 111 83.4477 111 84C111 84.5523 111.448 85 112 85H116C116.552 85 117 84.5523 117 84C117 83.4477 116.552 83 116 83H112ZM111 97C111 96.4477 111.448 96 112 96H116C116.552 96 117 96.4477 117 97C117 97.5523 116.552 98 116 98H112C111.448 98 111 97.5523 111 97ZM112 109C111.448 109 111 109.448 111 110C111 110.552 111.448 111 112 111H116C116.552 111 117 110.552 117 110C117 109.448 116.552 109 116 109H112ZM111 123C111 122.448 111.448 122 112 122H116C116.552 122 117 122.448 117 123C117 123.552 116.552 124 116 124H112C111.448 124 111 123.552 111 123ZM112 135C111.448 135 111 135.448 111 136C111 136.552 111.448 137 112 137H116C116.552 137 117 136.552 117 136C117 135.448 116.552 135 116 135H112Z" fill="#9F7133"/>
<path d="M238 24H95V26H238V24Z" fill="#DCDCDC" fill-opacity="0.6"/>
<path d="M106 15C107.657 15 109 13.6569 109 12C109 10.3431 107.657 9 106 9C104.343 9 103 10.3431 103 12C103 13.6569 104.343 15 106 15Z" fill="#DCDCDC" fill-opacity="0.6"/>
<path d="M116 15C117.657 15 119 13.6569 119 12C119 10.3431 117.657 9 116 9C114.343 9 113 10.3431 113 12C113 13.6569 114.343 15 116 15Z" fill="#DCDCDC" fill-opacity="0.6"/>
<path d="M126 15C127.657 15 129 13.6569 129 12C129 10.3431 127.657 9 126 9C124.343 9 123 10.3431 123 12C123 13.6569 124.343 15 126 15Z" fill="#DCDCDC" fill-opacity="0.6"/>
</svg>
