<svg width="32" height="32" viewBox="0 0 32 32" fill="none" xmlns="http://www.w3.org/2000/svg">
<circle cx="16" cy="16" r="15" stroke="#DCDCDC" stroke-width="2"/>
<path d="M11.8592 23.9997V13.204H8.21495V23.9997H11.8595H11.8592ZM10.0377 11.7303C11.3083 11.7303 12.0993 10.9013 12.0993 9.86533C12.0754 8.80583 11.3083 8 10.0619 8C8.81457 8 8 8.80583 8 9.86533C8 10.9013 8.79069 11.7303 10.0138 11.7303H10.0374H10.0377ZM13.8762 23.9997H17.5201V17.9716C17.5201 17.6493 17.544 17.3263 17.6402 17.0962C17.9035 16.4512 18.5032 15.7836 19.5101 15.7836C20.8284 15.7836 21.3561 16.7735 21.3561 18.225V23.9997H25V17.8098C25 14.494 23.2024 12.951 20.8048 12.951C18.8391 12.951 17.9758 14.0328 17.4962 14.7696H17.5204V13.2044H13.8765C13.924 14.2171 13.8762 24 13.8762 24V23.9997Z" fill="#DCDCDC"/>
</svg>
