<svg width="32" height="32" viewBox="0 0 32 32" fill="none" xmlns="http://www.w3.org/2000/svg">
<path d="M31 16C31 24.2843 24.2843 31 16 31C7.71573 31 1 24.2843 1 16C1 7.71573 7.71573 1 16 1C24.2843 1 31 7.71573 31 16Z" stroke="#DCDCDC" stroke-width="2"/>
<path d="M6.65899 15.8612L17.4336 11.4219C18.4971 10.9595 22.1041 9.4797 22.1041 9.4797C22.1041 9.4797 23.7688 8.8323 23.6301 10.4046C23.5838 11.052 23.2139 13.3178 22.844 15.7687L21.6879 23.0288C21.6879 23.0288 21.5954 24.0924 20.8093 24.2774C20.0231 24.4624 18.7284 23.63 18.4971 23.445C18.3122 23.3063 15.0289 21.2254 13.8266 20.208C13.5029 19.9306 13.133 19.3757 13.8729 18.7283C15.5376 17.2022 17.526 15.3063 18.7284 14.104C19.2833 13.5491 19.8382 12.2543 17.526 13.8265L11.0058 18.2196C11.0058 18.2196 10.2659 18.682 8.87865 18.2658C7.49136 17.8496 5.87287 17.2947 5.87287 17.2947C5.87287 17.2947 4.76304 16.6011 6.65899 15.8612Z" fill="#DCDCDC"/>
</svg>
