<svg width="32" height="32" viewBox="0 0 32 32" fill="none" xmlns="http://www.w3.org/2000/svg">
<path d="M0 16C0 11.5833 1.5625 7.81249 4.68753 4.6875C7.81249 1.5625 11.5833 0 16 0C20.4166 0 24.1875 1.5625 27.3125 4.6875C30.4375 7.81249 32 11.5833 32 16C32 20.4166 30.4375 24.1875 27.3125 27.3125C24.1875 30.4375 20.4167 32 16 32C11.5833 32 7.81249 30.4375 4.68753 27.3125C1.5625 24.1875 0 20.4166 0 16ZM1.75 16C1.75 19.9167 3.14583 23.2708 5.93749 26.0625C8.72916 28.8541 12.0833 30.25 16 30.25C19.9167 30.25 23.2708 28.8542 26.0625 26.0625C28.8542 23.2708 30.25 19.9167 30.25 16C30.25 12.0833 28.8542 8.72916 26.0625 5.93749C23.2708 3.14583 19.9166 1.75 16 1.75C12.0833 1.75 8.72919 3.14583 5.93749 5.93749C3.14583 8.72916 1.75 12.0833 1.75 16ZM6.25003 19.4375C6.16669 19.3541 6.16669 19.2708 6.25003 19.1875C6.41666 19.0208 6.62503 18.9583 6.87499 19C7.12499 19.0416 7.27083 19.0833 7.31249 19.125C7.60416 19.25 7.92709 19.5312 8.28123 19.9687C8.63536 20.4062 8.91663 20.7083 9.12499 20.875C10.125 21.7083 11.1458 21.7708 12.1875 21.0625C12.2708 20.7708 12.4062 20.5208 12.5937 20.3124C12.7812 20.1041 12.9583 19.9583 13.125 19.8749C13.2917 19.7916 13.5833 19.6666 14 19.5C12.625 19.375 11.5104 19.1353 10.6562 18.7812C9.80206 18.427 9.12496 17.9791 8.62496 17.4375C7.95829 16.6875 7.55203 15.7083 7.40619 14.5C7.26033 13.2916 7.3541 12.1875 7.68746 11.1875C7.93746 10.5625 8.29163 9.99999 8.74993 9.49996C8.41659 8.45829 8.47909 7.27079 8.93743 5.93746C10.2708 6.0208 11.4791 6.47913 12.5624 7.31246C14.6458 6.77079 16.8124 6.74996 19.0624 7.24996C19.3541 7.04163 19.802 6.78123 20.4061 6.4687C21.0103 6.1562 21.7707 5.9791 22.6874 5.93743C22.854 6.39576 22.9686 6.93743 23.0311 7.56243C23.0936 8.18743 23.0624 8.77076 22.9374 9.31243C23.8957 10.3124 24.3957 11.6458 24.4374 13.3124C24.4374 14.6458 24.2082 15.7499 23.7499 16.6249C23.2916 17.4999 22.4791 18.2291 21.3124 18.8124C20.5208 19.1874 19.4791 19.4166 18.1874 19.4999C18.7708 19.7916 19.1978 20.0936 19.4687 20.4061C19.7395 20.7186 19.9166 21.2082 20 21.8749V23.8437L20.0624 25.7499C20.1874 25.9583 20.3333 26.1353 20.5 26.2812C20.6666 26.427 20.8125 26.5312 20.9375 26.5937C21.0624 26.6562 21.1041 26.75 21.0624 26.875C21.0208 27 20.8541 27.0625 20.5625 27.0625C19.8541 27.0625 19.2916 26.8125 18.875 26.3124C18.75 26.1041 18.6875 25.8541 18.6875 25.5624V22.5624C18.6875 22.2291 18.6041 21.9895 18.4375 21.8437C18.2708 21.6978 18.1041 21.6041 17.9375 21.5624V25.4999C17.9375 26.2082 18.0208 26.6666 18.1875 26.8749C18.3541 27.0832 18.4583 27.2916 18.5 27.4999C18.5417 27.5416 18.5104 27.5728 18.4062 27.5936C18.3021 27.6144 18.125 27.5832 17.875 27.4999C17.3333 27.3749 16.9583 27.0936 16.75 26.6561C16.5416 26.2186 16.4375 25.7499 16.4375 25.2499V21.375H15.625V25.25C15.625 25.75 15.5208 26.2292 15.3125 26.6875C15.0208 27.2708 14.4791 27.5833 13.6875 27.625C13.5625 27.5833 13.5 27.5416 13.5 27.5C13.5417 27.4583 13.6667 27.25 13.875 26.875C13.9167 26.7917 13.9688 26.625 14.0313 26.375C14.0938 26.125 14.125 25.8333 14.125 25.5V21.5625C13.9584 21.6041 13.8021 21.6979 13.6563 21.8437C13.5104 21.9896 13.4375 22.2292 13.4375 22.5625V25.5625C13.4375 25.8541 13.375 26.1042 13.25 26.3125C12.875 26.8125 12.3125 27.0625 11.5625 27.0625C11.2709 27.0625 11.1042 27 11.0625 26.875C11.0208 26.7917 11.0313 26.7188 11.0938 26.6563C11.1563 26.5938 11.2501 26.5208 11.3751 26.4375C11.5001 26.3542 11.5834 26.2916 11.6251 26.25C11.7917 26.125 11.9167 25.9583 12.0001 25.75C12.1251 25.5833 12.1563 25.1458 12.0938 24.4375C12.0313 23.7292 12.0209 23.2708 12.0625 23.0625C10.9792 23.4375 9.87502 23.25 8.74999 22.5C8.41666 22.1667 8.08333 21.6875 7.74999 21.0625C7.49999 20.6041 6.99999 20.0625 6.25003 19.4375Z" fill="#DCDCDC"/>
</svg>
