<svg id="Layer_1" enable-background="new 0 0 513.119 513.119" height="512" viewBox="0 0 513.119 513.119" width="512" xmlns="http://www.w3.org/2000/svg"><g><g><rect fill="none" height="0" width="207.59" x="152.764" y="75.129"/><path d="m360.354 46.57v81.697c0 8.284 6.716 15 15 15s15-6.716 15-15v-53.138z" fill="#734536"/><path d="m122.764 128.266c0 8.284 6.716 15 15 15s15-6.716 15-15v-81.696l-30 28.559z" fill="#854737"/><path d="m390.354 75.129c0-41.118-33.452-74.569-74.569-74.569h-118.452c-41.118 0-74.569 33.451-74.569 74.569h30 207.59z" fill="#bc8173"/></g><path d="m315.785.559h-54.855v74.569h99.425 30c-.001-41.118-33.452-74.569-74.57-74.569z" fill="#9d5e4a"/><path d="m471.527 242.248c-2.456 10.009-11.43 17.046-21.735 17.046h-383.702c-10.147 0-19.025-6.827-21.63-16.635l-43.354-102.533c-.718 2.278-1.106 4.702-1.106 7.217v341.211c0 13.258 10.748 24.006 24.006 24.006h465.107c13.258 0 24.006-10.748 24.006-24.006v-341.211c0-2.866-.504-5.614-1.426-8.162z" fill="#854737"/><path d="m471.527 242.248c-2.456 10.009-11.43 17.046-21.735 17.046h-188.862v253.266h228.183c13.258 0 24.006-10.748 24.006-24.006v-341.211c0-2.866-.504-5.614-1.426-8.162z" fill="#734536"/><path d="m66.09 334.789h383.701c10.306 0 19.279-7.037 21.735-17.046l40.166-178.562c-3.341-9.24-12.188-15.844-22.58-15.844h-465.106c-10.743 0-19.836 7.058-22.9 16.789l43.354 178.029c2.605 9.807 11.483 16.634 21.63 16.634z" fill="#9d5e4a"/><path d="m489.113 123.337h-228.183v211.452h188.862c10.306 0 19.279-7.037 21.735-17.046l40.166-178.562c-3.341-9.24-12.188-15.844-22.58-15.844z" fill="#854737"/><path d="m120.819 397.923c0 17.999 14.591 32.591 32.591 32.591 17.999 0 32.591-14.591 32.591-32.591v-30.389l-33.236-23.274-31.946 23.274z" fill="#ffcb00"/><path d="m336.838 367.534v30.389c0 17.999 14.591 32.591 32.591 32.591 17.999 0 32.591-14.591 32.591-32.591v-30.389l-32.591-19.924z" fill="#ff9d21"/><path d="m120.819 291.326v76.208h65.181v-76.208c0-5.414-4.389-9.803-9.803-9.803h-45.576c-5.414.001-9.802 4.389-9.802 9.803z" fill="#ffe705"/><path d="m392.217 281.524h-45.577c-5.414 0-9.803 4.389-9.803 9.803v76.208h65.182v-76.208c0-5.415-4.389-9.803-9.802-9.803z" fill="#ffcb00"/></g></svg>