<svg width="58" height="58" viewBox="0 0 60 60" fill="none" xmlns="http://www.w3.org/2000/svg">
<path fill-rule="evenodd" clip-rule="evenodd" d="M58 30C58 45.464 45.464 58 30 58C14.536 58 2 45.464 2 30C2 14.536 14.536 2 30 2C45.464 2 58 14.536 58 30ZM60 30C60 46.5685 46.5686 60 30 60C13.4315 60 0 46.5685 0 30C0 13.4315 13.4315 0 30 0C46.5686 0 60 13.4315 60 30ZM25.7681 16.8565L31.5864 13.7225L25.8042 10L25.7911 12.4743C21.3428 13.3714 17.4736 15.8676 14.8094 19.3374C14.2483 19.1195 13.6381 19 13 19C10.2386 19 8 21.2386 8 24C8 26.0892 9.28131 27.8791 11.101 28.6268C11.0342 29.2653 11 29.9135 11 30.5698C11 32.9862 11.4643 35.2943 12.3086 37.4095L13.9687 36.1465C13.3417 34.405 13 32.5273 13 30.5698C13 30.0401 13.025 29.5163 13.0739 28.9995C15.8013 28.9599 18 26.7367 18 24C18 22.5995 17.4242 21.3335 16.4963 20.4258C18.7854 17.5046 22.0403 15.3766 25.7804 14.5226L25.7681 16.8565ZM18.3369 45.3036C20.2965 46.7854 22.561 47.8851 25.0197 48.4922L24.0048 50.25H36.9952L35.6722 47.9585C38.6548 46.8928 41.2831 45.0816 43.3324 42.7493L41.5784 41.709C39.7087 43.7419 37.334 45.3032 34.6533 46.1938L30.5 39L26.0662 46.6795C23.7688 46.198 21.6476 45.2374 19.8118 43.9071L21.7727 42.0503L15.2194 39.9659L16.974 46.5941L18.3369 45.3036ZM45.6721 33.4315L43.7457 32.1521L43.1721 38.7358L49.4574 35.9454L47.4727 34.6273C47.7655 33.3217 47.92 31.9637 47.92 30.5698C47.92 30.041 47.8978 29.5175 47.8542 29H51V20H44.5964C42.5499 17.0748 39.6771 14.7702 36.3167 13.425V15.6014C38.5515 16.6269 40.5172 18.1381 42.0785 20H42V29H45.8462C45.895 29.5167 45.92 30.0403 45.92 30.5698C45.92 31.5458 45.8351 32.5021 45.6721 33.4315Z" fill="#FFA01B"/>
</svg>
