<svg width="58" height="58" viewBox="0 0 60 60" fill="none" xmlns="http://www.w3.org/2000/svg">
<path d="M29.5 2V59" stroke="#FFA01B" stroke-width="2"/>
<path d="M30 59C46.0163 59 59 46.0163 59 30C59 13.9837 46.0163 1 30 1C13.9837 1 1 13.9837 1 30C1 46.0163 13.9837 59 30 59Z" stroke="#FFA01B" stroke-width="2"/>
<path d="M54 29C54 35.9417 51.3418 43.2286 47.0345 48.7711C42.724 54.3178 36.8627 58 30.4999 58C24.1372 58 18.2759 54.3178 13.9654 48.7712C9.65818 43.2287 7 35.9417 7 29C7 22.0675 9.65129 15.2952 13.9371 10.2637C18.2217 5.23351 24.0853 2 30.4999 2C36.9146 2 42.7782 5.23351 47.0628 10.2637C51.3487 15.2952 54 22.0675 54 29Z" stroke="#FFA01B" stroke-width="2"/>
<path d="M45 29C45 36.0316 43.2422 43.3753 40.422 48.9322C39.0122 51.71 37.3582 53.9993 35.5659 55.5823C33.7766 57.1626 31.8979 58 30 58C28.102 58 26.2233 57.1626 24.434 55.5823C22.6418 53.9993 20.9878 51.71 19.578 48.9322C16.7578 43.3753 15 36.0316 15 29C15 21.9719 16.756 15.1424 19.5602 10.1013C22.3912 5.01208 26.1279 2 30 2C33.8721 2 37.6088 5.01208 40.4398 10.1013C43.244 15.1424 45 21.9719 45 29Z" stroke="#FFA01B" stroke-width="2"/>
<path d="M47 16C51.4183 16 55 12.4183 55 8C55 3.58172 51.4183 0 47 0C42.5817 0 39 3.58172 39 8C39 12.4183 42.5817 16 47 16Z" fill="#40414B"/>
<path d="M30 46C38.8366 46 46 38.8366 46 30C46 21.1634 38.8366 14 30 14C21.1634 14 14 21.1634 14 30C14 38.8366 21.1634 46 30 46Z" fill="#40414B"/>
<path d="M53.5 6.59998H40.5C40.2239 6.59998 40 6.82383 40 7.09998V8.82658C40 9.10272 40.2239 9.32658 40.5 9.32658H53.5C53.7761 9.32658 54 9.10272 54 8.82658V7.09998C54 6.82383 53.7761 6.59998 53.5 6.59998Z" fill="#FFA01B"/>
<path d="M52.5469 11.6666L43.4544 2.3753C43.2613 2.17794 42.9447 2.17451 42.7474 2.36765L41.5134 3.57527C41.316 3.76841 41.3126 4.08497 41.5057 4.28233L50.5981 13.5736C50.7913 13.771 51.1078 13.7744 51.3052 13.5813L52.5392 12.3736C52.7366 12.1805 52.74 11.8639 52.5469 11.6666Z" fill="#FFA01B"/>
<path d="M48.3999 14.5V1.5C48.3999 1.22386 48.176 1 47.8999 1L46.1733 1C45.8972 1 45.6733 1.22386 45.6733 1.5V14.5C45.6733 14.7761 45.8972 15 46.1733 15H47.8999C48.176 15 48.3999 14.7761 48.3999 14.5Z" fill="#FFA01B"/>
<path d="M43.3335 13.5468L52.6248 4.45444C52.8222 4.26131 52.8256 3.94474 52.6325 3.74738L51.4249 2.51335C51.2317 2.31598 50.9152 2.31256 50.7178 2.5057L41.4265 11.5981C41.2291 11.7912 41.2257 12.1078 41.4188 12.3051L42.6264 13.5392C42.8196 13.7365 43.1361 13.74 43.3335 13.5468Z" fill="#FFA01B"/>
<path d="M46.9999 13.6C50.0927 13.6 52.5999 11.0928 52.5999 8.00002C52.5999 4.90723 50.0927 2.40002 46.9999 2.40002C43.9071 2.40002 41.3999 4.90723 41.3999 8.00002C41.3999 11.0928 43.9071 13.6 46.9999 13.6Z" fill="#FFA01B"/>
<path d="M47 10.8C48.5463 10.8 49.7999 9.54635 49.7999 7.99995C49.7999 6.45355 48.5463 5.19995 47 5.19995C45.4536 5.19995 44.2 6.45355 44.2 7.99995C44.2 9.54635 45.4536 10.8 47 10.8Z" fill="#40414B"/>
<path d="M42.5 27.4001H17.5C17.2239 27.4001 17 27.624 17 27.9001V31.9638C17 32.24 17.2239 32.4638 17.5 32.4638H42.5C42.7761 32.4638 43 32.24 43 31.9638V27.9001C43 27.624 42.7761 27.4001 42.5 27.4001Z" fill="#FFA01B"/>
<path d="M40.601 37.1158L23.1156 19.248C22.9224 19.0506 22.6059 19.0472 22.4085 19.2403L19.5041 22.0825C19.3068 22.2757 19.3034 22.5922 19.4965 22.7896L36.9819 40.6574C37.1751 40.8548 37.4916 40.8582 37.689 40.6651L40.5934 37.8229C40.7907 37.6297 40.7942 37.3132 40.601 37.1158Z" fill="#FFA01B"/>
<path d="M32.6001 42.5V17.5C32.6001 17.2239 32.3762 17 32.1001 17H28.0364C27.7603 17 27.5364 17.2239 27.5364 17.5V42.5C27.5364 42.7761 27.7603 43 28.0364 43H32.1001C32.3762 43 32.6001 42.7761 32.6001 42.5Z" fill="#FFA01B"/>
<path d="M22.8843 40.6009L40.7523 23.1156C40.9496 22.9224 40.9531 22.6059 40.7599 22.4085L37.9177 19.5041C37.7246 19.3068 37.408 19.3033 37.2107 19.4965L19.3427 36.9818C19.1454 37.175 19.1419 37.4915 19.3351 37.6889L22.1773 40.5933C22.3704 40.7906 22.687 40.7941 22.8843 40.6009Z" fill="#FFA01B"/>
<path d="M30.0001 40.4C35.7439 40.4 40.4001 35.7437 40.4001 30C40.4001 24.2562 35.7439 19.6 30.0001 19.6C24.2563 19.6 19.6001 24.2562 19.6001 30C19.6001 35.7437 24.2563 40.4 30.0001 40.4Z" fill="#FFA01B"/>
<path d="M30 35.2001C32.8719 35.2001 35.2001 32.8719 35.2001 30C35.2001 27.1282 32.8719 24.8 30 24.8C27.1282 24.8 24.8 27.1282 24.8 30C24.8 32.8719 27.1282 35.2001 30 35.2001Z" fill="#40414B"/>
</svg>
