<svg width="58" height="58" viewBox="0 0 60 60" fill="none" xmlns="http://www.w3.org/2000/svg">
<path d="M30 59C46.0163 59 59 46.0163 59 30C59 13.9837 46.0163 1 30 1C13.9837 1 1 13.9837 1 30C1 46.0163 13.9837 59 30 59Z" stroke="#FFA01B" stroke-width="2"/>
<path d="M54 29C54 16.2975 43.7025 6 31 6" stroke="#FFA01B" stroke-width="2"/>
<path d="M40.8142 33.0312H36.0486L34.9783 36H33.4314L37.7752 24.625H39.0877L43.4392 36H41.9002L40.8142 33.0312ZM36.5017 31.7969H40.3689L38.4314 26.4766L36.5017 31.7969Z" fill="#FFA01B"/>
<path d="M32.158 31.6055H24.4529L22.9881 36H18.3152L26.2547 14.6719H30.3269L38.3103 36H33.6375L32.158 31.6055ZM25.6394 28.0459H30.9715L28.2908 20.0625L25.6394 28.0459Z" fill="#FFA01B"/>
<path d="M25.0237 15.0778C25.1226 14.82 24.9939 14.5308 24.7361 14.4319C24.4783 14.3329 24.1891 14.4617 24.0901 14.7195L16.1793 35.3278C16.0803 35.5856 16.2091 35.8748 16.4669 35.9738C16.7247 36.0727 17.0139 35.944 17.1129 35.6862L25.0237 15.0778Z" fill="#FFA01B"/>
<path d="M22.7832 45.3848H19.3496V49H17.8672V40.4688H23.2871V41.6641H19.3496V44.2011H22.7832V45.3848ZM23.9316 45.7715C23.9316 45.1504 24.0547 44.5917 24.3008 44.0956C24.5469 43.5956 24.8926 43.2129 25.3379 42.9473C25.7832 42.6777 26.2949 42.5429 26.873 42.5429C27.7285 42.5429 28.4219 42.8183 28.9531 43.369C29.4883 43.9198 29.7773 44.6504 29.8203 45.5605L29.8262 45.8945C29.8262 46.5195 29.7051 47.0781 29.4629 47.5703C29.2246 48.0625 28.8809 48.4433 28.4316 48.7128C27.9863 48.9823 27.4707 49.1171 26.8848 49.1171C25.9902 49.1171 25.2734 48.8203 24.7344 48.2266C24.1992 47.6289 23.9316 46.834 23.9316 45.8418V45.7715ZM25.3555 45.8945C25.3555 46.5469 25.4902 47.0585 25.7598 47.4296C26.0293 47.7968 26.4043 47.9804 26.8848 47.9804C27.3652 47.9804 27.7383 47.7929 28.0039 47.4179C28.2734 47.0429 28.4082 46.4941 28.4082 45.7715C28.4082 45.1308 28.2695 44.623 27.9922 44.248C27.7188 43.873 27.3457 43.6855 26.873 43.6855C26.4082 43.6855 26.0391 43.871 25.7656 44.2421C25.4922 44.6093 25.3555 45.1602 25.3555 45.8945ZM32.3516 42.6601L32.3926 43.3926C32.8613 42.8262 33.4766 42.5429 34.2383 42.5429C35.5586 42.5429 36.2305 43.2988 36.2539 44.8105V49H34.8301V44.8926C34.8301 44.4902 34.7422 44.1933 34.5664 44.0019C34.3945 43.8065 34.1113 43.709 33.7168 43.709C33.1426 43.709 32.7148 43.9688 32.4336 44.4883V49H31.0098V42.6601H32.3516ZM39.4941 41.119V42.6601H40.6133V43.7148H39.4941V47.2538C39.4941 47.496 39.541 47.6719 39.6348 47.7812C39.7324 47.8867 39.9043 47.9394 40.1504 47.9394C40.3145 47.9394 40.4805 47.9199 40.6484 47.8809V48.9823C40.3242 49.0722 40.0117 49.1171 39.7109 49.1171C38.6172 49.1171 38.0703 48.5136 38.0703 47.3065V43.7148H37.0273V42.6601H38.0703V41.119H39.4941Z" fill="#FFA01B"/>
</svg>
