<svg width="165" height="22" viewBox="0 0 165 22" fill="none" xmlns="http://www.w3.org/2000/svg">
<g clip-path="url(#clip0_76:324)">
<path d="M66.3941 12.1041C66.8488 10.0835 68.31 9.20368 69.9896 9.20368C71.669 9.20368 73.3152 10.0773 73.5365 12.1041H66.3941ZM75.789 18.4894L76.0285 15.7084C72.0814 17.949 67.2066 18.2632 66.4668 14.3415H76.4348V13.1002C76.3135 8.87685 73.2001 6.79028 69.9896 6.79028C66.7063 6.79028 63.4958 8.95226 63.4958 13.3485C63.4958 20.0041 70.3958 21.3679 75.789 18.4894Z" fill="#DCDCDC"/>
<path d="M51.8939 12.1041C52.3487 10.0835 53.8099 9.20368 55.4894 9.20368C57.1659 9.20368 58.8151 10.0773 59.0364 12.1041H51.8939ZM61.2858 18.4894L61.5253 15.7084C57.5782 17.949 52.7034 18.2632 51.9637 14.3415H61.9315V13.1002C61.8102 8.87685 58.6968 6.79028 55.4864 6.79028C52.2032 6.79028 48.9927 8.95226 48.9927 13.3485C48.9927 20.0041 55.8956 21.3679 61.2858 18.4894Z" fill="#DCDCDC"/>
<path d="M81.3217 1.62402H78.5659V19.5577H81.3217V14.0428C82.3766 14.0428 83.1921 14.0428 84.0288 14.8378C85.2021 16.0791 86.0661 17.6691 86.8573 19.5577H90.019C89.2525 17.025 86.8331 13.075 84.2684 13.075V12.701C86.3784 12.701 88.9642 9.27265 89.6588 7.13895H86.7604C86.0904 8.62845 85.2021 9.99535 83.9804 11.1141C83.1649 11.9091 82.1826 11.884 81.3217 11.884V1.62402Z" fill="#DCDCDC"/>
<path d="M95.276 9.84448V5.22514H99.3505C101.53 5.22514 102.37 6.36898 102.37 7.53481C102.37 8.67865 101.53 9.84448 99.3505 9.84448H95.276ZM95.276 16.9464V12.327H100.021C102.201 12.327 103.04 13.4708 103.04 14.6366C103.04 15.7805 102.155 16.9464 99.9723 16.9464H95.276ZM99.9484 2.61694H92.3992V19.5546H100.666C104.189 19.5546 105.963 17.4931 105.963 15.0106C105.963 12.8235 104.428 11.2617 101.818 11.0857V10.6898C104.31 10.2184 105.244 8.60323 105.244 6.91576C105.244 4.62808 103.519 2.61694 99.9484 2.61694Z" fill="#DCDCDC"/>
<path d="M108.081 7.13574V19.5546H110.838V11.2114C111.868 10.1431 113.208 9.77226 115.391 9.77226H116.494L116.279 6.91577H115.394C113.572 6.91577 111.847 7.73594 111.177 9.44859H110.84V7.13574H108.081Z" fill="#DCDCDC"/>
<path d="M119.853 13.3451C119.853 10.6144 121.348 9.22222 123.361 9.22222C124.989 9.22222 126.126 9.74389 127.133 10.8123V15.8779C126.126 16.9463 124.989 17.4679 123.361 17.4679C121.351 17.4679 119.853 16.079 119.853 13.3451ZM127.135 7.13569V8.94886H126.823C125.743 7.4845 124.489 6.73975 122.642 6.73975C118.88 6.73975 117.001 9.89468 117.001 13.3451C117.001 16.7954 118.88 19.9504 122.642 19.9504C124.489 19.9504 125.743 19.2057 126.823 17.7413H127.135V19.5545H129.891V7.13569H127.135Z" fill="#DCDCDC"/>
<path d="M133.207 19.5547H135.964V7.13583H133.207V19.5547ZM134.599 5.54891C135.748 5.54891 136.515 4.75389 136.515 3.56291C136.515 2.37194 135.748 1.5769 134.599 1.5769C133.45 1.5769 132.683 2.37194 132.683 3.56291C132.68 4.75389 133.447 5.54891 134.599 5.54891Z" fill="#DCDCDC"/>
<path d="M142.038 7.13569H139.283V19.5545H142.038V10.8123C143.045 9.79412 144.158 9.22222 145.497 9.22222C146.959 9.22222 148.335 10.0676 148.335 12.6003V19.5545H151.091V11.9562C151.091 8.75089 149.642 6.73975 146.649 6.73975C145.022 6.73975 143.381 7.45936 142.303 9.04942H142.038V7.13569Z" fill="#DCDCDC"/>
<path d="M153.404 10.7401C153.404 12.9491 155.393 13.8196 156.926 14.1684L160.449 14.9383C161.598 15.1865 162.126 15.5354 162.126 16.1293C162.126 17.0249 160.928 17.4459 159.179 17.4459C157.118 17.4459 154.747 16.6258 153.428 15.881L153.667 18.6872C155.202 19.5073 157.191 19.9536 159.033 19.9536C162.459 19.9536 165 18.7878 165 16.0036C165 13.7442 163.178 12.8989 161.047 12.4276L157.836 11.7331C156.83 11.51 156.278 11.1612 156.278 10.5673C156.278 9.72193 157.357 9.2757 159.082 9.2757C161.022 9.2757 163.108 10.0205 164.209 10.6426L163.969 7.83648C162.65 7.14202 160.949 6.74293 159.225 6.74293C156.09 6.73978 153.404 7.88362 153.404 10.7401Z" fill="#DCDCDC"/>
<path d="M38.9611 10.1998V12.9242H44.0724V15.9755C42.693 16.802 41.2682 17.179 39.913 17.179C36.6723 17.179 33.7255 14.9983 33.7255 11.1142C33.7255 7.23017 36.6753 5.04934 39.913 5.04934C41.9927 5.04934 44.2058 5.91979 46.2127 7.67325L45.9156 4.20718C43.9754 2.89051 41.8411 2.26831 39.5886 2.26831C35.0837 2.26831 30.6758 5.39815 30.6758 11.111C30.6758 16.824 35.0837 19.9538 39.5886 19.9538C41.8411 19.9538 44.1906 19.4322 46.8493 17.3959V10.1998H38.9611Z" fill="#DCDCDC"/>
<path d="M14.8375 7.92749C14.9562 7.92749 15.0961 7.90235 15.2147 7.88035L15.2603 7.95262C15.2147 8.29203 15.3789 8.46488 15.5431 8.65972C16.3217 9.53654 17.5443 10.1933 19.0284 9.36678C19.664 9.97645 19.664 12.0192 19.0284 12.6288C17.5443 11.8024 16.3217 12.4592 15.5431 13.3359C15.3789 13.5308 15.2147 13.7005 15.2603 14.0431L15.2147 14.1153C15.0961 14.0902 14.9562 14.0682 14.8375 14.0682C13.9647 14.0682 13.2835 14.7973 13.2835 15.6741C13.2835 16.5509 13.9677 17.2548 14.8375 17.2548C15.6617 17.2548 16.3673 16.5478 16.3673 15.6741C16.3673 15.407 16.2973 15.1619 16.1787 14.945L16.2487 14.8727C16.4616 14.9199 16.5771 14.8004 16.79 14.5804C17.2128 14.1436 17.6842 13.7759 18.2985 14.1907C19.147 14.7753 18.6999 15.8689 18.04 16.796C17.0759 18.1599 15.686 19.2536 14.5304 19.6684C13.5876 20.0078 12.6935 19.9104 12.0822 19.6935V21.4943C14.8375 22.2987 17.38 20.6175 19.3112 17.965C20.254 16.6766 21.0995 15.0927 20.1354 13.5119L20.2053 13.4145C20.4638 13.4397 20.6524 13.2699 20.7953 12.9997C21.4553 11.8306 21.4553 10.1776 20.7953 9.00855C20.6554 8.76657 20.5125 8.57172 20.2053 8.59372L20.1354 8.4963C21.0995 6.91556 20.254 5.30967 19.3112 4.04319C17.5716 1.64851 15.4275 0.334885 13.4964 0.334885C11.1637 0.334885 9.39977 2.23304 9.39977 4.59315V6.36874C9.39977 7.61009 9.87117 8.24175 10.671 9.14369L11.3553 9.89789C11.5682 10.1399 11.7081 10.3128 12.0396 10.3128L12.1095 10.385C12.0396 10.5547 11.9909 10.7747 11.9909 10.9696C11.9909 11.8464 12.6965 12.5755 13.5207 12.5755C14.3935 12.5755 15.0748 11.8464 15.0748 10.9696C15.0748 10.0928 14.3905 9.38878 13.5207 9.38878C13.3565 9.38878 13.1679 9.41398 13.025 9.48622L12.955 9.41398C12.955 9.07455 12.7908 8.92684 12.5779 8.70686L11.8723 7.95262C11.3766 7.41838 11.1181 6.93127 11.1181 6.19904V4.59315C11.1181 3.66921 11.4253 2.93698 12.0366 2.50016C12.6722 2.03819 13.5906 1.98791 14.5334 2.33046C15.8746 2.81757 17.2401 4.05891 18.043 5.20283C18.7029 6.12676 19.15 7.22354 18.3015 7.80807C17.8058 8.14747 17.3374 8.00291 16.7931 7.41838C16.5802 7.1764 16.4403 7.10098 16.2517 7.12611L16.1818 7.05383C16.3004 6.83385 16.3703 6.59187 16.3703 6.32474C16.3703 5.44795 15.6648 4.744 14.8406 4.744C13.9677 4.744 13.2865 5.45109 13.2865 6.32474C13.2865 7.19839 13.9677 7.92749 14.8375 7.92749ZM6.45583 14.0587C6.33722 14.0587 6.19732 14.0839 6.07871 14.1059L6.03309 14.0336C6.07872 13.6942 5.91449 13.5214 5.75026 13.3265C4.9717 12.4497 3.74911 11.7929 2.26498 12.6195C1.62936 12.0098 1.62936 9.9671 2.26498 9.35743C3.74911 10.1839 4.9717 9.5271 5.75026 8.65029C5.91449 8.45544 6.07872 8.28575 6.03309 7.9432L6.07871 7.87092C6.19732 7.89606 6.33722 7.91806 6.45583 7.91806C7.32867 7.91806 8.00991 7.18897 8.00991 6.31218C8.00991 5.43538 7.32563 4.73143 6.45583 4.73143C5.63165 4.73143 4.92607 5.43852 4.92607 6.31218C4.92607 6.57929 4.99602 6.82442 5.11464 7.04127L5.04469 7.11354C4.83179 7.06641 4.71623 7.18582 4.50334 7.40581C4.08061 7.84263 3.60922 8.21033 2.99487 7.7955C2.14637 7.21097 2.59343 6.11733 3.25338 5.19025C4.21746 3.82635 5.60732 2.73271 6.763 2.31788C7.70578 1.97848 8.59991 2.0759 9.21117 2.29275V0.504588C6.45583 -0.296785 3.9103 1.38138 1.9791 4.03376C1.03631 5.32224 0.190839 6.90613 1.15492 8.48688L1.08497 8.5843C0.826462 8.55916 0.637904 8.72886 0.494965 8.99913C-0.164988 10.1682 -0.164988 11.8212 0.494965 12.9903C0.634863 13.2323 0.777801 13.4271 1.08497 13.4051L1.15492 13.5025C0.190839 15.0801 1.03935 16.6891 1.9791 17.9525C3.72173 20.3377 5.86582 21.6514 7.79702 21.6514C10.1297 21.6514 11.8936 19.7533 11.8936 17.3931V15.6175C11.8936 14.3762 11.4222 13.7445 10.6224 12.8426L9.93806 12.0884C9.72515 11.8464 9.58526 11.6735 9.25375 11.6735L9.18385 11.6012C9.25375 11.4316 9.30245 11.2116 9.30245 11.0167C9.30245 10.1399 8.59687 9.41078 7.77269 9.41078C6.89985 9.41078 6.21861 10.1399 6.21861 11.0167C6.21861 11.8935 6.90289 12.5975 7.77269 12.5975C7.93692 12.5975 8.12548 12.5723 8.26842 12.5L8.33836 12.5723C8.33836 12.9117 8.50259 13.0594 8.71549 13.2794L9.42106 14.0336C9.91677 14.5679 10.1753 15.055 10.1753 15.7872V17.3931C10.1753 18.317 9.86815 19.0493 9.25685 19.4861C8.62121 19.948 7.70274 19.9984 6.75995 19.6558C5.41876 19.1687 4.05323 17.9273 3.25034 16.7834C2.59039 15.8595 2.14332 14.7627 2.99184 14.1782C3.48756 13.8387 3.95592 13.9834 4.5003 14.5679C4.71319 14.8099 4.85308 14.8853 5.04165 14.8602L5.11159 14.9324C4.99298 15.1524 4.92303 15.3944 4.92303 15.6615C4.92303 16.5383 5.6286 17.2422 6.45279 17.2422C7.32563 17.2422 8.00687 16.5352 8.00687 15.6615C8.00991 14.791 7.32563 14.0587 6.45583 14.0587Z" fill="#DCDCDC"/>
</g>
<defs>
<clipPath id="clip0_76:324">
<rect width="165" height="22" fill="white"/>
</clipPath>
</defs>
</svg>
