<svg width="58" height="58" viewBox="0 0 60 60" fill="none" xmlns="http://www.w3.org/2000/svg">
<path d="M30 59C46.0163 59 59 46.0163 59 30C59 13.9837 46.0163 1 30 1C13.9837 1 1 13.9837 1 30C1 46.0163 13.9837 59 30 59Z" stroke="#FFA01B" stroke-width="2"/>
<path d="M17 20H11C10.4477 20 10 20.4477 10 21C10 21.5523 10.4477 22 11 22H17C17.5523 22 18 21.5523 18 21C18 20.4477 17.5523 20 17 20Z" fill="#FFA01B"/>
<path d="M44.5 29H35.5C35.2239 29 35 29.2239 35 29.5V30.4476C35 30.7237 35.2239 30.9476 35.5 30.9476H44.5C44.7761 30.9476 45 30.7237 45 30.4476V29.5C45 29.2239 44.7761 29 44.5 29Z" fill="#FFA01B"/>
<path d="M43.8622 32.5168L37.5675 26.0844C37.3743 25.887 37.0578 25.8836 36.8604 26.0768L36.1832 26.7395C35.9858 26.9326 35.9824 27.2492 36.1755 27.4466L42.4703 33.879C42.6634 34.0764 42.98 34.0798 43.1774 33.8866L43.8546 33.2239C44.052 33.0308 44.0554 32.7142 43.8622 32.5168Z" fill="#FFA01B"/>
<path d="M41 34.5V25.5C41 25.2239 40.7761 25 40.5 25H39.5524C39.2763 25 39.0524 25.2239 39.0524 25.5V34.5C39.0524 34.7761 39.2763 35 39.5524 35H40.5C40.7761 35 41 34.7761 41 34.5Z" fill="#FFA01B"/>
<path d="M37.4831 33.8621L43.9156 27.5674C44.113 27.3742 44.1164 27.0577 43.9232 26.8603L43.2605 26.183C43.0674 25.9857 42.7508 25.9823 42.5534 26.1754L36.121 32.4701C35.9236 32.6633 35.9202 32.9798 36.1133 33.1772L36.7761 33.8544C36.9692 34.0518 37.2858 34.0552 37.4831 33.8621Z" fill="#FFA01B"/>
<path d="M40 34C42.2091 34 44 32.2091 44 30C44 27.7909 42.2091 26 40 26C37.7909 26 36 27.7909 36 30C36 32.2091 37.7909 34 40 34Z" fill="#FFA01B"/>
<path d="M40 32C41.1046 32 42 31.1046 42 30C42 28.8954 41.1046 28 40 28C38.8954 28 38 28.8954 38 30C38 31.1046 38.8954 32 40 32Z" fill="#40414B"/>
<path d="M40 24V17C40 15.3431 38.6569 14 37 14H25C23.3431 14 22 15.3431 22 17V42.5C22 44.1569 23.3431 45.5 25 45.5H37C38.6569 45.5 40 44.1569 40 42.5V36.5" stroke="#FFA01B" stroke-width="2"/>
<path d="M21 39H40V40C40 43.3137 37.3137 46 34 46H27C23.6863 46 21 43.3137 21 40V39Z" fill="#FFA01B"/>
<path d="M22 18H41C41 15.2386 38.7614 13 36 13H27C24.2386 13 22 15.2386 22 18Z" fill="#FFA01B"/>
<path d="M31.5 44C32.3284 44 33 43.3284 33 42.5C33 41.6716 32.3284 41 31.5 41C30.6716 41 30 41.6716 30 42.5C30 43.3284 30.6716 44 31.5 44Z" fill="#40414B"/>
<path d="M34.5 15H27.5C27.2239 15 27 15.2239 27 15.5C27 15.7761 27.2239 16 27.5 16H34.5C34.7761 16 35 15.7761 35 15.5C35 15.2239 34.7761 15 34.5 15Z" fill="#40414B"/>
<path d="M17 24H13C12.4477 24 12 24.4477 12 25C12 25.5523 12.4477 26 13 26H17C17.5523 26 18 25.5523 18 25C18 24.4477 17.5523 24 17 24Z" fill="#FFA01B"/>
<path d="M17 28H15C14.4477 28 14 28.4477 14 29C14 29.5523 14.4477 30 15 30H17C17.5523 30 18 29.5523 18 29C18 28.4477 17.5523 28 17 28Z" fill="#FFA01B"/>
</svg>
