<svg width="58" height="58" viewBox="0 0 60 60" fill="none" xmlns="http://www.w3.org/2000/svg">
<path d="M18 34C18 33.4477 18.4477 33 19 33H23C23.5523 33 24 33.4477 24 34V48H18V34Z" fill="#FFA01B"/>
<path d="M27 31C27 30.4477 27.4477 30 28 30H32C32.5523 30 33 30.4477 33 31V48H27V31Z" fill="#FFA01B"/>
<path d="M36 27C36 26.4477 36.4477 26 37 26H41C41.5523 26 42 26.4477 42 27V48H36V27Z" fill="#FFA01B"/>
<path fill-rule="evenodd" clip-rule="evenodd" d="M30 58C39.5184 58 47.9275 53.2505 52.9867 45.9921L53.4019 46.4239L53.6397 46.6713L53.9792 46.7205L54.8287 46.8437C49.4315 54.7842 40.3248 60 30 60C18.9103 60 9.22606 53.9829 4.03392 45.0353L4.82377 43.9074L5.56334 43.6796C10.3574 52.2252 19.5043 58 30 58ZM4.63455 41.8729C2.94441 38.2683 2 34.2444 2 30C2 21.1602 6.0964 13.2772 12.4945 8.14565L12.1598 7.14173L11.2804 6.55548C4.40453 12.0528 0 20.512 0 30C0 34.6782 1.07082 39.1063 2.98072 43.0526L3.38234 42.4791L3.57916 42.1981L3.90706 42.097L4.63455 41.8729ZM54.6058 44.7905L54.0995 44.2639C56.5774 40.0864 58 35.2093 58 30C58 21.565 54.2702 14.0012 48.3699 8.86782L48.9232 8.50172L49.2093 8.31238L49.3189 7.98725L49.5651 7.25712C55.9545 12.7587 60 20.9069 60 30C60 35.4608 58.541 40.5808 55.9915 44.9914L54.6058 44.7905ZM47.9034 5.92555C42.9061 2.20314 36.7103 0 30 0C23.682 0 17.8202 1.95305 12.9853 5.28835L13.5547 5.66795L13.8402 5.85827L13.9487 6.18377L14.1845 6.89117C18.6846 3.80543 24.1314 2 30 2C36.2749 2 42.0678 4.06413 46.7366 7.55044L47.5333 7.02317L47.9034 5.92555Z" fill="#FFA01B"/>
<path d="M17 25.5L26.5 17L30.5 21L39.5 14" stroke="#FFA01B" stroke-width="2"/>
<path d="M40.5 15.5L38 12.5L42 12L40.5 15.5Z" fill="#FFA01B" stroke="#FFA01B" stroke-width="2"/>
</svg>
