<svg width="58" height="58" viewBox="0 0 60 60" fill="none" xmlns="http://www.w3.org/2000/svg">
<g clip-path="url(#clip0_76:387)">
<path d="M40.4249 22.2505H11.0237C10.7475 22.2505 10.5237 22.4743 10.5237 22.7505V27.5582C10.5237 27.8343 10.7475 28.0582 11.0237 28.0582H40.4249C40.701 28.0582 40.9249 27.8343 40.9249 27.5582V22.7505C40.9249 22.4743 40.701 22.2505 40.4249 22.2505Z" fill="#FFA01B"/>
<path d="M38.1754 33.4497L17.6185 12.8448C17.4235 12.6493 17.1039 12.6459 16.9047 12.8371L13.3944 16.2066C13.1952 16.3978 13.1918 16.7113 13.3868 16.9068L33.9437 37.5117C34.1387 37.7072 34.4583 37.7107 34.6575 37.5195L38.1678 34.15C38.367 33.9587 38.3704 33.6452 38.1754 33.4497Z" fill="#FFA01B"/>
<path d="M28.7642 39.6426L28.7642 10.8224C28.7642 10.5462 28.5403 10.3224 28.2642 10.3224H23.3433C23.0672 10.3224 22.8433 10.5462 22.8433 10.8224V39.6426C22.8433 39.9187 23.0672 40.1426 23.3433 40.1426H28.2642C28.5403 40.1426 28.7642 39.9187 28.7642 39.6426Z" fill="#FFA01B"/>
<path d="M17.3469 37.446L38.3536 17.2817C38.5529 17.0904 38.5562 16.7769 38.3612 16.5815L34.9263 13.1386C34.7313 12.9431 34.4117 12.9396 34.2125 13.1308L13.2058 33.2951C13.0066 33.4864 13.0032 33.7999 13.1982 33.9953L16.6331 37.4382C16.8281 37.6337 17.1477 37.6372 17.3469 37.446Z" fill="#FFA01B"/>
<path d="M25.7242 37.1605C32.4403 37.1605 37.8847 31.8201 37.8847 25.2324C37.8847 18.6447 32.4403 13.3043 25.7242 13.3043C19.0082 13.3043 13.5637 18.6447 13.5637 25.2324C13.5637 31.8201 19.0082 37.1605 25.7242 37.1605Z" fill="#FFA01B"/>
<path d="M25.7243 31.1965C29.0823 31.1965 31.8045 28.5263 31.8045 25.2325C31.8045 21.9386 29.0823 19.2684 25.7243 19.2684C22.3663 19.2684 19.644 21.9386 19.644 25.2325C19.644 28.5263 22.3663 31.1965 25.7243 31.1965Z" fill="#40414B"/>
<path fill-rule="evenodd" clip-rule="evenodd" d="M49.4482 25.2325C49.4482 38.0272 38.8631 48.4649 25.7241 48.4649C12.5851 48.4649 2 38.0272 2 25.2325C2 12.4377 12.5851 2 25.7241 2C38.8631 2 49.4482 12.4377 49.4482 25.2325ZM41.9977 44.775C37.5641 48.3314 31.8981 50.4649 25.7241 50.4649C11.5171 50.4649 0 39.168 0 25.2325C0 11.297 11.5171 0 25.7241 0C39.9311 0 51.4482 11.297 51.4482 25.2325C51.4482 31.8731 48.8329 37.9146 44.5576 42.42L46.8817 44.6997C48.5844 43.992 50.6277 44.3189 52.0157 45.6803L58.6301 52.1683C60.4567 53.96 60.4567 56.8647 58.6301 58.6564C56.8036 60.448 53.8422 60.448 52.0157 58.6564L45.4013 52.1683C44.0134 50.807 43.6801 48.8029 44.4014 47.1328L41.9977 44.775Z" fill="#FFA01B"/>
</g>
<defs>
<clipPath id="clip0_76:387">
<rect width="60" height="60" fill="white"/>
</clipPath>
</defs>
</svg>
