<svg width="98" height="22" viewBox="0 0 98 22" fill="none" xmlns="http://www.w3.org/2000/svg">
<path fill-rule="evenodd" clip-rule="evenodd" d="M13.6823 15.6814C13.6823 19.1367 10.9532 21.6425 6.61837 21.6425C4.10481 21.5723 1.72278 20.4943 0 18.6475L1.44975 17.0308C2.80667 18.3335 4.40325 19.5996 6.58968 19.5996C9.0183 19.5996 11.6368 18.2263 11.6368 15.7605C11.6368 13.7125 10.0225 12.3766 6.63019 11.3232C2.76448 10.1321 0.80082 8.51542 0.80082 5.47615C0.80082 2.46835 3.32564 0 6.923 0C9.60985 0 11.2908 1.15461 12.927 2.63002L11.5018 4.22538C10.0672 2.94398 8.70016 2.07525 7.02258 2.07525C4.94163 2.07525 2.88768 3.42812 2.88768 5.37575C2.88768 7.14043 3.89355 8.26442 7.4445 9.36033C10.6968 10.3703 13.6823 11.935 13.6823 15.6805V15.6814ZM31.2286 1.99284C31.2286 2.94048 31.9903 3.70869 32.9299 3.70869C33.3812 3.70891 33.814 3.52821 34.133 3.20638C34.4522 2.88455 34.6313 2.44798 34.6311 1.99284C34.6311 1.04521 33.8694 0.276994 32.9299 0.276994C31.9903 0.276994 31.2286 1.04521 31.2286 1.99284ZM47.6915 0.628671H45.6409V21.3036H47.6915V0.628671ZM52.4773 20.6154C52.4773 20.6154 53.7397 21.6492 57.9455 21.6492L57.9429 21.6484C62.0947 21.6484 65.4642 18.5869 65.4642 14.4041C65.4642 10.2213 62.0972 7.1718 57.9455 7.1718C56.7677 7.14 55.5985 7.38102 54.5278 7.8763V0.628671H52.4773V20.6154ZM67.8583 14.4222C67.858 18.6069 71.2223 21.9995 75.3728 22C79.5236 22 82.8886 18.6077 82.889 14.4228C82.889 10.2382 79.5244 6.84583 75.3739 6.84567C71.2235 6.84552 67.8586 10.2377 67.8583 14.4222ZM95.3233 21.31H98L92.082 14.2027L97.6009 7.53708H94.9394L90.7479 12.5997L86.5354 7.53708H83.8587L89.4172 14.212L83.5406 21.31H86.2013L90.7505 15.8151L95.3233 21.31ZM75.3857 8.89142C73.1722 8.89108 71.1764 10.2354 70.3292 12.2972C69.4819 14.3592 69.9501 16.7327 71.5153 18.3109C73.0805 19.8891 75.4345 20.3612 77.4794 19.5069C79.5244 18.6526 80.8577 16.6403 80.8573 14.4084C80.8568 11.3616 78.4074 8.89189 75.3857 8.89142ZM57.9452 9.2437C56.7206 9.26106 55.5296 9.65013 54.5275 10.3602V18.8936C55.5896 19.4141 56.7663 19.6514 57.9452 19.5829C60.9645 19.5829 63.4133 17.4555 63.4133 14.4133C63.4133 11.3711 60.962 9.24285 57.9427 9.24285L57.9452 9.2437ZM38.8066 0.628903H40.8572V21.3038H38.8066V0.628903ZM26.1596 21.3054L18.9868 14.073L25.4803 7.52145H28.3798L21.8863 14.073L29.0592 21.3054H26.1596ZM16.9298 0.628671V21.3036H18.9804V0.628671H16.9298ZM31.9766 21.3054H34.0272V7.52145H31.9766V21.3054Z" fill="#DCDCDC"/>
</svg>
